# xmcd
#
# Track frame offsets:
# 182
# 25282
# 50245
#
# Disc length: 919 seconds
#
#
# Revision: 3
# Processed by: cddbd v1.5.2PL0 Copyright (c) Steve Scherf et al.
# Submitted via: FreeRIP 2.944 
#
DISCID=24039503
DTITLE=Zucchero - Maxi CD Single
DYEAR=1995
DGENRE=Pop
TTITLE0=My Love
TTITLE1=Il Volo
TTITLE2=Voodoo Voodoo
EXTD=
EXTT0=
EXTT1=
EXTT2=
PLAYORDER=
